<svg id="Layer_1" data-name="Layer 1" xmlns="http://www.w3.org/2000/svg" viewBox="0 0 1025 1024"><defs><style>.cls-1{fill:#363435;}.cls-2{fill:#fdfdfd;}.cls-3{fill:#03037e;}</style></defs><title>dojo-do-circulo</title><path class="cls-1" d="M956.16,500.17c-.38-11.81.21-23.63-1.24-35.42-.65-5.23-.51-10.58-1.9-15.72a108.58,108.58,0,0,1-3.6-30.58,66.35,66.35,0,0,0-2.24-20c-.79-2.71-2-5.31-2.17-8.17a25.64,25.64,0,0,0-3.21-10.75,22,22,0,0,1-2.59-8,106.26,106.26,0,0,0-6-24.21c-3-8.13-5.34-16.41-5.44-25.16a2.49,2.49,0,0,0-1.14-2c-4.76-4.17-8.3-9-9.09-15.55a12.16,12.16,0,0,0-1.55-5.17c-1.48-2.33-3-4.63-3-7.55a3,3,0,0,0-1-1.89,34.59,34.59,0,0,1-6-9.3,45.3,45.3,0,0,0-6.29-10.12,12.75,12.75,0,0,1-3.09-5.44c-1.73-7.85-7.29-13.3-12.38-18.85a35.46,35.46,0,0,1-5.36-7.42c-.85-1.6-1.63-3.24-2.53-4.81-1.85-3.23-3.88-6.37-7.06-8.43a29.12,29.12,0,0,1-7.58-7.39c-2.5-3.38-5-6.79-8.56-9.18a4.83,4.83,0,0,1-1.82-2.13c-1.18-2.86-3.46-4.62-6.05-6a14.66,14.66,0,0,1-5.6-5.33q-1.73-2.76-3.36-5.59a17.57,17.57,0,0,0-7-7,26.19,26.19,0,0,1-8.3-6.58,64.06,64.06,0,0,0-12.4-11.83c-5-3.66-9.57-7.84-15.36-10.5-4.08-1.87-7.52-5.14-11.3-7.69-3-2-5.65-4.7-9.16-5.78-7.33-2.24-13.1-7-19-11.5-3.5-2.68-7.1-5.06-11.37-6.17a52.2,52.2,0,0,1-14.9-6.93A78.1,78.1,0,0,0,710,107.49c-2.34-.77-4.77-1.19-7-2.18-9.37-4.07-18.74-8.13-28.17-12.06-5.68-2.37-11.39-4.82-17.45-6-4.43-.86-8.88-1.61-13-3.48-6.12-2.78-12.72-3.5-19.19-4.51C610.91,77,596.6,75.1,582.29,73.34c-7-.86-13.84-2.4-20.77-3.48a3.54,3.54,0,0,0-3.74,1.35c-1.55,1.86-2.82,1.5-3.72-.83a1.61,1.61,0,0,0-1.7-1.28c-2.9,0-5.8-.14-8.7-.15-1.15,0-2.53-.15-3.34.67-1.17,1.17-2.18.63-3.31.22a33.82,33.82,0,0,0-15.66-1.35c-1.45.17-2.3.56-.85,2,.36.36,1.17.87.62,1.38s-1.77.71-2.19.07c-1.74-2.62-4.68-3.19-7.16-4.55H510a18.51,18.51,0,0,1-10.89,0h-2.61c-1.36.79-3.08.86-4.27,1.94a4.1,4.1,0,0,1-4,1c-1.63-.44-2.36.05-2.58,1.7a2.26,2.26,0,0,1-1.78,2.22c-1.27.17-1.91-.86-2.48-1.8a5.74,5.74,0,0,1-.56-1.41,1,1,0,0,0-1.29-.83c-5.88.86-11.92,1.16-17.6,2.74a70.74,70.74,0,0,1-15.12,2.39c-5.29.3-10.89.41-15.36,4.17a1.05,1.05,0,0,1-.83,0c-4.67-1.46-9,0-13.37,1.47-1.8.61-2.58,0-3-1.64-.1-.41,0-.9-.93-1.15-.69,5-4.84,4.41-8.33,5-.21,0-.42.12-.63.17-14.35,3.14-28,8.4-41.82,13.25a7.46,7.46,0,0,0-2.09,1.14,27,27,0,0,1-11.59,5.24c-8,1.56-14.78,6.19-22.54,8.3a2.25,2.25,0,0,0-.59.28,97.89,97.89,0,0,1-17.48,8.7c-11.73,4.44-22,11.7-32.84,17.74a65.3,65.3,0,0,0-6.4,4.11,5.77,5.77,0,0,1-4.17,1.35c-1-.1-2.3-.42-2.79,1a8.42,8.42,0,0,1-4.9,4.93,11.4,11.4,0,0,0-3.46,2.6,40.63,40.63,0,0,1-7.85,6.17,96.75,96.75,0,0,0-8.71,5.74c-4.89,3.95-9.3,8.46-14.2,12.42-5,4.09-10.45,7.82-14.21,13.29a.48.48,0,0,1-.16.15c-4,2.19-6.77,5.86-10.07,8.88C187.06,209.22,177,221,166.95,232.81c-3.46,4.09-6.39,8.61-10.11,12.51A19.55,19.55,0,0,0,153,251.6a6.74,6.74,0,0,1-1.35,2.45c-3.82,3.52-6.12,8.24-9.65,12a26.43,26.43,0,0,0-7,12.57,5.18,5.18,0,0,1-2.64,3.82c-2.21,1.08-3.41,3-4.66,5-2,3.26-3.39,6.89-5.5,10.07a81.24,81.24,0,0,0-4.58,7.12,473.81,473.81,0,0,0-21.8,49.26c-7.41,19.33-13.21,39.14-18.9,59-4.72,16.46-7.29,33.41-9.68,50.36-1.38,9.77-2.6,19.57-2.28,29.47a12.16,12.16,0,0,0,.89,5.27c.16-.91.3-1.47.35-2,1.08-11.34,2.2-22.67,3.2-34,1.12-12.67,2.77-25.28,7.06-37.3,5.24-14.69,9.15-29.74,13-44.82a6.64,6.64,0,0,1,2-3.76c1.94-1.54,2.76-3.65,3.41-5.91,2.34-8.15,4.73-16.28,7.09-24.43,1.17-4,2.14-8.14,5-11.45a20.86,20.86,0,0,0,5.1-12.44c.24-3.33,1.74-4.69,5.18-5.44a3.29,3.29,0,0,0,1.63-1,8.59,8.59,0,0,0,2.21-5.09,8.77,8.77,0,0,1,2.19-4.63,17.5,17.5,0,0,0,4.75-10.94,3.44,3.44,0,0,1,.47-1.86c3.28-4.05,4.94-9.15,8.68-13,2.83-2.88,5.4-6.15,6.2-10.3a7.9,7.9,0,0,1,1.82-3.85c1.71-2,3.43-3.93,5.12-5.93,3.79-4.48,8-8.68,11.25-13.54,7.64-11.56,16.77-21.82,26.33-31.74,3.06-3.18,6.5-6,9.73-9,1.8-1.68,2.77-4,4.7-5.67,7.2-6.08,14.32-12.27,21.48-18.41,3.3-2.83,7-5.34,9.81-8.57A55.9,55.9,0,0,1,246,162.63a16.48,16.48,0,0,1,3.9-2.33c.75-.23,1.2-.32,1.13.81-.16,2.52,0,2.58,2.34,1.48.5-.23,1-.44,1.5-.66-.08,2.11-1.84,2.68-3.31,3.43s-3,1.2-4,2.51a16.57,16.57,0,0,1-7,5,54.14,54.14,0,0,0-5.46,2.68c-3.7,2.09-6.65,4.85-7.93,9.11a9.61,9.61,0,0,1-3.55,4.83c-1.67,1.28-3.38,2.49-5.11,3.7a18.11,18.11,0,0,0-6.8,7.72,9.94,9.94,0,0,1-5.74,5.35,19.72,19.72,0,0,0-6.12,4c-3,2.8-5.94,5.75-8.74,8.79-6.84,7.4-12.71,15.66-19.94,22.71a1.45,1.45,0,0,0,.11,2.41c1.14.86.63,1.55.09,2.34-.41.6-.79,1.21-1.23,1.79q-11.29,15.18-22.59,30.35a10.61,10.61,0,0,0-2.48,5,5.67,5.67,0,0,0,3.33-2.48c.59-.82,1-1.76,1.62-2.57,1-1.29,2.24-3,3.81-2,1.37.82,1,3,.06,4.16-2.41,3.21-3.73,7.06-6.13,10.21a31.18,31.18,0,0,0-5.13,9.27,81.54,81.54,0,0,1-9.17,18.89,12.94,12.94,0,0,0-2.28,5.83c-.19,2.51-1.9,3.56-3.68,4.63a2.49,2.49,0,0,1-3.05.06c-1.25-1.06-1.2-2.57-1.06-4,.11-1.16.76-1.59,2-1.78,2.26-.34,2.75-1.42,2-3.7a3.41,3.41,0,0,1,.67-3.84c2.38-2.25,2.26-5.06,2.2-8.15-1.57.65-3.08.87-3.63,2.49-1.21,3.54-3.29,6.6-5.3,9.7a26.29,26.29,0,0,0-3.64,7.62,9.9,9.9,0,0,1-4.79,6.65,4.88,4.88,0,0,0-2,2c-1.6,3.39-4.24,6-6.25,9.12a15.55,15.55,0,0,0-2.59,8.64,4.8,4.8,0,0,0,3.28-2.63,1.3,1.3,0,0,1,1.56-.82c.89.11.61.82.71,1.34.07.34,0,.75.57.8a13.68,13.68,0,0,0,2.9-7.09c.07-1,.49-1.39,1.49-1.36s1.84-.27,2-1.59c.14-.85.54-1.88,1.86-1.64.48.09.75-.19,1-.63,1.64-2.94,2.39-2.94,4.16,0,0,.05.23,0,.52,0-.44-1.48-.79-2.91-1.29-4.28-.62-1.71.47-2.28,1.72-2.53,1.68-.34,1.64,1.06,1.67,2.1a16.07,16.07,0,0,1-1.17,7c-1.28,2.92-2.48,5.87-3.72,8.81-.41,1-.41,1-1.61.83-.4,0-.49.25-.6.48a46,46,0,0,1-4.3,7c-.77,1.05-.85,2.68-2.81,2.09-.47-.14-.75.39-.94.77-1.5,3-4,5.17-6.36,7.37a21.74,21.74,0,0,0-6.92,12,66.61,66.61,0,0,1-3.58,13c-1.14,2.71-1.13,2.82,1.78,3.46,1.41.31,1.71.92,1.86,2.31.52,5-1.45,9.72-2,14.6-.22,2-.36,4.2-1.56,5.83-3,4.14-2.52,8.93-2.93,13.58a1.21,1.21,0,0,0,.89,1.46c4.41,1.71,4.4,1.74,3.89,6.47a1.38,1.38,0,0,0,0,.43c.29,1.31-1.44,3.21,1.16,3.86.34.09.2.7,0,1a5.32,5.32,0,0,0-1.11,2.78c-.09.53-.35.79-.86.72-2.42-.34-3.61,1.4-5,2.85-1.12,1.15-.62,1.95.45,2.59a22.67,22.67,0,0,0,2.56,1.17c.52.23,1.05.35,1.22,1.07a5,5,0,0,1-2.64,5.62c-3.3,1.46-5.13,4.23-6.42,7.34-1.57,3.76-.9,5,2.89,6.31a2.19,2.19,0,0,0,.41.13c1.16.15,1.28.9,1.18,1.89-.22,2.16-.31,4.34-.56,6.5-.13,1.09-.19,1.9,1.31,1.64.64-.11,1,0,.95.91-.3,3.07-1.44,4.5-4.45,5.31-3.74,1-4,1.34-3.66,5.23a23.4,23.4,0,0,0,.72,3.84,39.06,39.06,0,0,1,1.3,9c.08,3.12.17,6.24.17,9.35,0,1.33.77,2.16,1.82,1.78,2.93-1.07,3.51.67,4,2.85a6.38,6.38,0,0,0,.8,1.78,20.4,20.4,0,0,1,2.6,10c.33,10.6,1.21,21.12,5.27,31.1a10.76,10.76,0,0,1,.61,3.4c.33,5.87.58,11.74.57,17.61a78.06,78.06,0,0,0,.2,9.57c1.11,9.15,3.28,18.1,5.22,27.09.4,1.84.94,3.73,2.57,4.91a3.17,3.17,0,0,1,.91,4.44c-.9,1.51-.49,2.55.16,3.77s1.24,2.3,1.88,3.43c4.06,7.12,8.19,14.2,9.39,22.52a32.8,32.8,0,0,0,2.57,8.28q1.5,3.49,3,7l.43.87.4.89.38.92c1.57,3.48,3.77,6.73,3.9,10.74-2.45-3-3-6.86-4.37-10.37l-.32-.92-.45-.88-.48-.82c-1.54-2.22-3.42-3.81-6.36-3.07-1.73.43-1.84-.32-1.72-1.78.35-4.38-1.1-5.54-5.38-4.49a14.33,14.33,0,0,0-2,.7,1.57,1.57,0,0,0-.82.61c-.83,1.8,1.49,6.81,3.38,7.53,1.2.46,2.7.69,3.38,1.81a32,32,0,0,1,3.85,10.08c-1.71.15-2.4-1.2-3.54-1.8,0,5.11,4.52,14.46,8.61,17.83-.47-4.86-4.28-8.5-4.21-13.5a15,15,0,0,1,5.35,4.82c1.12,1.55,4.94,2.67,6.23,1.53s.42-2.93.17-4.43a5.06,5.06,0,0,0-.4-1l-.1-.49.37.24a14.71,14.71,0,0,1,4.53,4.28c.94,1.3,1.85,2.4,3.62,2.34.9,0,1.16.73,1.47,1.39,2,4.33,4,8.67,6.11,13,.53,1.1.58,1.83-.57,2.52-1.39.82-2.45,1.75-.2,2.91.67.35.82,1.16,1.17,1.79a111,111,0,0,0,10.89,16.07c1.77-1,1.32-3.1,2.56-4.47.76,1.16,1.46,2.09,2,3.09s1.22,2,.52,3-1.8.8-2.8.73c-1.37-.1-2.73-.37-4.1-.47-.83-.06-1.86-.39-2.4.52s.27,1.49.62,2.17a16.75,16.75,0,0,1,1.26,2.28c.65,2,1.63,1.6,2.78.52,2-1.93,2.7-1.9,4,.51.64,1.17,1,2.06,2.43.71.57-.54,2-1.27,2.53,0,.88,2.36,2.71,3.91,4.22,5.73.39.48.75,1.78,1.68.87.74-.71,1.43-1.78.1-2.76-1.1-.81-1.29-1.95-1.13-3.51,2.93,2.2,5.73,4.14,7.7,7C188.87,769,198.15,780,207,791.32a30.48,30.48,0,0,1,4.27,6.62c-6.06-4.44-11.05-9-14.27-15.15-1.35-2.58-3.29-4-6.22-3.87-1.46.08-2.05-.4-1.63-1.82.73-2.48.27-4.4-2.12-5.82a7.32,7.32,0,0,1-2.48-2.7c-1.91-3.48-4.68-4.36-8.3-3.16-.11,0-.2.16-.52.43,3.3,3.47,5.18,8.1,9.28,10.93a1.14,1.14,0,0,1,.34,1.7c-.55.76-1.11.15-1.41-.25-2.73-3.59-7.09-5.57-9.4-9.57a6,6,0,0,0-3.18-2.47,10.21,10.21,0,0,1-6.11-6.12,9.52,9.52,0,0,0-4.75-5.68l-.36.32c1.12,1.7,2.27,3.37,3.34,5.09,2.11,3.38,4.86,6.38,6.32,10.13a20.37,20.37,0,0,0,4.14,6.56c8.43,9.1,16.81,18.24,25.23,27.35,1.26,1.36,1.61,2.6.09,4a1.88,1.88,0,0,0-.33,2.21c.81,2.15,1,4.21-.63,6.14a1.21,1.21,0,0,0,.09,1.9c1.82,1.65,3.26,3.78,5.48,4.93,3.11,1.6,4.41,3.94,3.87,7.42a3.91,3.91,0,0,0,1.63,4c7.2,5.38,14.35,10.83,21.53,16.24a8.87,8.87,0,0,0,2.76,1.7c3.61,1,5.73,3.32,7.21,6.64,1.33,3,1.75,3,4.88,1.9l1-.35c3.1-1,4.26-.57,6.22,2,.39.51.65,1.32,1.66.77,2.08-1.14,3.42-.36,4.2,1.75,1.2,3.25,3.62,4.68,7,4.86,2.25.11,4.59.42,6.34,2,2,1.79,4.44,2.9,6.7,4.3,9.19,5.73,18.81,11,25.68,19.74.77,1,1.63,1.86,1.65,3.2s-.42,1.92-1.83,1.58a23.21,23.21,0,0,1-4.53-1.47c-2.24-1.05-4.55-1.5-6.88-.16-1.4.81-2.34,1.63-.95,3.31a18.77,18.77,0,0,1,1.83,3.2c.4.75,1,.93,1.54.33a3,3,0,0,1,3.12-.88c.82.45-.08,1.84-.27,2.78-.88,4.38-.93,4.46,3.46,5.16,1.71.27,2.58,1,2.72,2.69a4.09,4.09,0,0,0,2,3.59,80.67,80.67,0,0,1,9,6.48c2.66,2,5.4,4,8.78,4.61a12.55,12.55,0,0,1,7.32,4.36,21.18,21.18,0,0,0,8.78,5.82c1.56.59,3.15,1.09,4.71,1.66,3.07,1.1,5.21,3,5.72,6.44a7.39,7.39,0,0,0,2.77,5c7.22,5.49,16.72,4.94,23-1.59a16.85,16.85,0,0,1,11.15-5.56,20.26,20.26,0,0,0,13-6.37,32.15,32.15,0,0,1,5.23-4.57c2.67-1.77,4.41-4.36,6.24-6.89.46-.64.59-1.24,0-1.72-2-1.69-1.51-3.48-.4-5.4s2.27-4.06,1.11-6.54c-.39-.84.12-1.66.63-2.41,2-2.93,4-5.89,6-8.82a14.62,14.62,0,0,0,2.9-8.51,3.7,3.7,0,0,1,1.15-3.17c1.93-1.46,2.69-3.55,3.38-5.68q2.59-8,5.07-15.95a2.36,2.36,0,0,1,2.64-1.89c4.51-.1,6.48-1.56,7.69-5.91,1.39-5,2.13-10.08,1.18-15.27-1.06-5.76-3.17-10.86-8-14.7-4.26-3.38-4.51-5.51-1.47-10.08a15.3,15.3,0,0,0,2.1-14,31,31,0,0,1-1-13.57,5.89,5.89,0,0,1,.65-2.11,15.44,15.44,0,0,1,2.11-4.18c-2-1.59-2.48-4.34-4.44-5.95a15.21,15.21,0,0,0-2.48-1.75c-4.07-2.14-6.54-.62-6.27,3.94.07,1.26-.38,1.58-1.44,1.88a24.89,24.89,0,0,1-15-.29c-6.51-2.2-13.17-4-19.37-7.08-3.57-1.78-7.5-2.68-11.36-3.65a71.63,71.63,0,0,1-21.54-9.07c-8.16-5.25-17-9-26-12.61a48.19,48.19,0,0,1-11.79-6.88,43.2,43.2,0,0,0-7.65-4.56,78.85,78.85,0,0,1-13.45-8.39c-7.18-5.65-15.21-10.13-22.09-16.21-5.4-4.77-10.28-10-15.17-15.28a105.88,105.88,0,0,0-8.72-8.5,16.17,16.17,0,0,1-2.06-2.22c-.91-1.13-1.5-2.67-2.64-3.43-5.83-3.88-7-11-11.29-16a79.63,79.63,0,0,1-11-16.13c-4.4-8.65-8.44-17.47-12.26-26.4a10.79,10.79,0,0,0-3.84-5.09c-2.38-1.61-2.53-2.64-1.64-5.58.81-2.67.58-3.18-2-4.33s-2.66-1.33-.7-3.68a2.55,2.55,0,0,0,.18-2.49,41.6,41.6,0,0,0-3.71-10,9.73,9.73,0,0,1-1.61-4.45c-.31-9.66-3.3-18.82-5.26-28.17a45.08,45.08,0,0,0-2-7.57,3.54,3.54,0,0,1,.07-2.34,11.71,11.71,0,0,0-.57-8.07,9.42,9.42,0,0,1-.86-5.29c.23-1.57-.94-2.68-1.72-3.87-.58-.89-1-1.69-.41-2.77,1.25-2.26,1.18-4.64.93-7.17-1-10-.71-20-.57-30,.46-32.86,7.77-64.36,19.09-95.06,2.6-7.05,5.87-13.9,6.7-21.51a3.39,3.39,0,0,1,2.07-3.06c1-.43,1.41-1.61,1.86-2.6,6.44-14,13.35-27.67,21.75-40.59,3.64-5.59,7.31-11.16,11.21-16.56a28.53,28.53,0,0,0,2.79-4.66,14.14,14.14,0,0,1,3.79-5c3.56-3,6-6.9,8.61-10.61a51.77,51.77,0,0,1,6.37-7.69,6.88,6.88,0,0,0,1.25-1.5c2.25-3.9,5-7.18,9.38-8.93,2-.8,3.1-3,4.58-4.58,2.23-2.39,4.42-4.8,6.53-7.29a23.87,23.87,0,0,1,6.6-5.58,14.57,14.57,0,0,0,4.69-4.77,19.58,19.58,0,0,1,8.67-7.31c3.63-1.52,6.55-4.28,9.64-6.66,17.46-13.43,36.8-23.62,56.64-33a38.52,38.52,0,0,1,6.73-2.46,11.91,11.91,0,0,0,4.3-2,15.87,15.87,0,0,1,3.64-1.93,374.37,374.37,0,0,1,58.63-18.32c11.56-2.7,23.29-3.86,34.89-6,3.64-.66,7.3-1.24,10.87-2.16a40.53,40.53,0,0,1,12.7-1.28A26.86,26.86,0,0,0,523.9,177c2-.79,4.28-.67,6.45-.79a120.23,120.23,0,0,1,24.06,1.44,28.5,28.5,0,0,0,10.6-.14c1.56-.36,3,.3,4.47.68a103,103,0,0,0,11.87,2.65,6.58,6.58,0,0,0,3.79-.47c3.3-1.48,5.2-1.07,7.77,1.61a2.14,2.14,0,0,0,2.27.72c5.38-1.15,10.48.54,15.63,1.69a4.1,4.1,0,0,1,1.6,1.07c.92.73,2,1.76,3,1.57,4.23-.8,6.69,3.22,10.44,3.57A47.77,47.77,0,0,1,636.68,193c2.35.78,4.66,1.63,6.41,3.49a1.69,1.69,0,0,0,1.35.54c6.64,0,12.53,2.66,18.55,5,8.17,3.15,16.1,6.87,24.29,10,6.38,2.46,13.1,4.72,18.22,9.83,1.86,1.85,4.52,2.42,6.95,3.39a97.69,97.69,0,0,0,14.25,4.5,3,3,0,0,1,2.14,2.52c.56,2.23,1.7,3.41,4.23,3.33a8.41,8.41,0,0,1,7.27,3.21,10.06,10.06,0,0,0,3.4,2.67c5.25,2.57,9.63,6.44,14.54,9.53a6.31,6.31,0,0,1,2.26,2.31,20.27,20.27,0,0,0,6.86,7.14c4.37,2.92,7.09,7.42,10.57,11.19,14.56,15.76,24.88,34.35,35.41,52.8q3.56,6.23,7.35,12.32a10.85,10.85,0,0,1,2,6.53,37.43,37.43,0,0,0,.26,4.12,5.84,5.84,0,0,0,2.07,4.37,13.34,13.34,0,0,1,3.71,6.29,33.3,33.3,0,0,0,3.56,7.66c2.89,4.59,3.2,10,4.72,15.06,3.55,11.82,3.6,24.21,6.24,36.17.87,3.94.46,8.1,1.53,12.06.68,2.51,2,4.8,2.35,7.43.72,5,.35,10,.13,15-.14,3.1-.45,6.13.93,9.17.77,1.7.64,3.84.75,5.79a104.79,104.79,0,0,1-.11,18.69,7.39,7.39,0,0,1-2.25,4.8c-1.65,1.53-1.7,3.68-1.64,5.67A28.49,28.49,0,0,1,843,506.61a31.9,31.9,0,0,0-1.71,11.33c0,8.42-.31,16.83-2.08,25.11a22.9,22.9,0,0,1-1,3.56c-3.54,9-6.18,18.43-9.92,27.36-2.24,5.34-4.44,10.84-8.33,15.43-3.29,3.9-5.18,8.7-7.38,13.27a47.69,47.69,0,0,1-7.42,11.71c-3.84,4.21-6,9.57-9.8,13.81-.48.54-.22.89.2,1.27s1.05,1,1.6,1.48c.93.81,1.69,1.6.78,2.93-.37.54-.08,1.12.57,1.71,1.75-2.95,3.48-5.85,5.21-8.76,1.18-2,2.3-4,3.54-6,.81-1.28,1.71-2.82,3.5-2.45s1.82,2.24,2.13,3.69a3.55,3.55,0,0,1-.24,2.76c-1,1.41-.79,2.35.89,2.86-.39.82-1.1.93-1.63,1.23-5.17,2.91-6.92,7.52-6.69,13.17.05,1.31.58,1.39,1.42.7,4.14-3.38,8.67-6.47,8.14-12.87-.21-2.54,1-4.83,2.22-7,3.93-6.61,8.72-12.64,13-19a2.62,2.62,0,0,1,2.29-1.44c1.08,0,1.48-.89,1.85-1.62,2.15-4.15,5-8,5.53-12.87a20.27,20.27,0,0,1,1.27-3.92c1.23-3.81,3.85-5.61,8.11-5.45-.26.89-.44,1.77-.76,2.59-4.14,10.36-8.61,20.56-14.49,30.09a35.16,35.16,0,0,0-4.62,11.1c2-.6,2.33-2.5,3.9-3.9a27,27,0,0,1-3.5,7.27c-5,7.93-11.12,15-17,22.31-2,2.43-3.82,4.92-5.7,7.41a9.06,9.06,0,0,0-2.1,5.37c0,.07,0,.17,0,.21-3.47,4.74-4,11.53-10,14.49a9.55,9.55,0,0,0-5.2,5.83,7.4,7.4,0,0,1-3.19,4,32.1,32.1,0,0,0-8.32,8.2,17,17,0,0,1-5.5,4.84,10.66,10.66,0,0,0-5.82,7.33l2.79-1.63a5.82,5.82,0,0,1-1.91,2.86,32,32,0,0,1-6.16,4.79c-3,2-5.59,4.37-6.72,8.09,1.65.5,2.7-.82,4.23-1.21-.37,2.37-2.84,3.7-2.78,6.28a8.29,8.29,0,0,0,4.62-3.07c2.66-3,6.36-4.83,8.61-8.25.68-1,2-.39,3.62-.62-4.06,5-7.34,9.86-12.22,13.26a32.07,32.07,0,0,0-7.14,6.3,8,8,0,0,1-2.68,2.18c-6.42,3.15-12.06,7.68-18.66,10.53-2.66,1.15-5.22,2.51-7.83,3.78a13.74,13.74,0,0,0-3.4,2.17c.67.3,1.23.58,1.81.81,2.29.92,2.38,1.32.66,3.17a8.73,8.73,0,0,1-3.72,2.18c-2.4.82-4.77,1.66-7.11,2.67-1.67.72-3.25-.6-4.2-1.76s-1.78-1.22-3.07-.6c-4,1.91-8,3.84-12.12,5.36-1.6.58-3.19,1.28-2,3.56a1.2,1.2,0,0,1-.46,1.71c-2.23,1.18-4.17,2.92-6.78,3.35a4.53,4.53,0,0,1-3.69-.63,4.54,4.54,0,0,0-6.28,1.36,18.36,18.36,0,0,1-4.63,5.42,2.34,2.34,0,0,0-1.16,2.73c.38,1.05,1.45.12,2.2.2.34,0,.7-.22,1.05.1,0,1.28-.47,2.16-2,2.18a3,3,0,0,0-2,.8,21.58,21.58,0,0,1-9.32,4.79l-.9.67a8.56,8.56,0,0,1-1.4.82c-.32.2-.65.37-1,.54a3.19,3.19,0,0,1-1.17.67,103.47,103.47,0,0,0-20.48,9.39,29.68,29.68,0,0,1-8.13,3c-1.43.33-2.25.27-2.25-1.46a16,16,0,0,0-.41-1.68c-.15-1.27-.78-1.28-1.81-.93a13,13,0,0,0-5.26,3.75,19.47,19.47,0,0,1-9.07,5.77c-6.21,1.71-12.37,3.44-17.7,7.29a7.13,7.13,0,0,1-1.81.71,2.87,2.87,0,0,1-3.06-.41c-1.28-1.15-2.64-.89-4.07-.42a41.51,41.51,0,0,0-10.34,5.45c-3,2-3.09,1.95-.64,4.56,1.58,1.69,1.54,2.58-.19,4.16a11.46,11.46,0,0,1-3.19,1.84c-1.52.68-3,1.47-4.45,2.26-.32.17-.78.3-.62.94.94,3.85,6.71,5.85,9.82,3.32a12.2,12.2,0,0,1,5.89-2.59c1.29-.21,2.59-.34,3.87-.59a3.7,3.7,0,0,0,2.88-2.94c.13-.44.22-.87-.28-1.12a3.9,3.9,0,0,0-3.94.11,18.29,18.29,0,0,1-2.35,1.13c-.47.19-.95.74-1.66.11a15,15,0,0,1,7.84-4.76c3.48-.95,3.39-.91,5,2.26,1,1.93,1.15,3.51-.8,4.85a1.6,1.6,0,0,0-.4,2c.21.72,1,.34,1.53.24.92-.18,1.8-.53,2.72-.75,1.63-.38,2.73-.13,2.88,1.94s1.44,2.6,2.94,1.19c1.78-1.68,4-1.87,6.27-2.38a3.18,3.18,0,0,1-2.17,2.34c-4.26,2-8.74,3.56-12.56,6.42-.35.27-1.55.48-.64,1.34.52.49,1.34.78,1.89-.06,1-1.5,2.56-1.8,4.08-2.24,6.3-1.81,12.5-4,17.93-7.64s11.19-4.87,17.21-5.35a21.25,21.25,0,0,0,13.7-6.22,28,28,0,0,1,2.86-2.34,21.76,21.76,0,0,1,11.24-4.37c-1.34,1-2.39,1.61-3.3,2.42a83.16,83.16,0,0,1-18.94,12.23,12.4,12.4,0,0,0-3.54,2.49,11.55,11.55,0,0,1-5.6,3.56c-.4.1-1,.13-.79.75a1.15,1.15,0,0,0,.79.64,3.11,3.11,0,0,0,1.71-.08c2.58-1.28,5.5-2,7.51-4.25,4.46-4.92,10.23-6.86,16.6-7.63a2.12,2.12,0,0,1,2.66,1.49c.29.73.43,1.68,1.65,1.73a11.39,11.39,0,0,0,6.43-1.22c8.36-4.69,15.54-10.88,22.67-17.16,1.2-1.05,2.32-2.35,3.87-2.77,5.09-1.38,9.19-4.56,13.61-7.17,3.62-2.14,7.2-4.44,11.36-5.32a23.85,23.85,0,0,0,9.17-4.3c2.28-1.66,4.41-3.55,6.75-5.13,3.87-2.63,7.62-5.63,12.78-5.26a2,2,0,0,0,2.47-2.07c0-1.18.57-1.62,1.8-1.46a12.93,12.93,0,0,0,8-1.69,6.61,6.61,0,0,1,6-.58,2.54,2.54,0,0,0,3.7-1.53,9.17,9.17,0,0,1,3.47-4.09,7.6,7.6,0,0,0,2.83-3.19,3.35,3.35,0,0,1,3-2.19c2.33.2,3.63-1.13,5-2.52a11.3,11.3,0,0,1,4.19-2.65c.68-.25,1.59-.65,2.08-.14,1.63,1.68,3.12.5,4.55-.11a43.53,43.53,0,0,1,11.75-3c1.15-.14,2.25,0,2.83-1.45s-.51-2-1.17-2.72-1.19-1.28-.18-2.3q8.49-8.59,16.83-17.33c.91-1,2.23-1,2.71-.41,1.34,1.56,2.06.6,3.17-.17a3,3,0,0,0,1.28-2.33,16.73,16.73,0,0,1,1.23-5.25c1.86-3.8,4.88-6.62,7.76-9.56a6,6,0,0,1,3-2c1-.18,1.79-.49,2.1-1.59.23-.82.75-.8,1.26-.24s.89,1.11,1.4,1.76c.39-.72.56-1.12.81-1.47.36-.54.77-1.29,1.41-1.22.81.09.85,1.07,1,1.7.58,1.85-.11,3.56-.82,5.25-.61,1.46-1.17,2.92.19,4.53.85-2,3.08-2.76,3.16-5.19,0-1,1.69-1.17,2.72-1.47.49-.14.63.24.68.6.17,1.32.31,2.78-.9,3.61-2.77,1.89-4.09,4.83-5.78,7.51-.85,1.35-1.48,3-3,3.67-3.63,1.7-5.93,4.76-8.5,7.63-3.34,3.73-7,7.17-12,8.7a5.72,5.72,0,0,0-3.23,2.75,8.89,8.89,0,0,1-4.42,3.68c-1.82.75-3.73,1.54-4,4.06a3.36,3.36,0,0,1-1.34,2.39c-2.29,1.19-3.39,3.36-4.68,5.32-1.48,2.26-3.92,3.3-5.66,5.4-1-3.77-.91-3.84,1.84-5.87,1.83-1.34,2.6-3.32,3.25-5.75a38.45,38.45,0,0,0-13.7,7.35,83.29,83.29,0,0,1-9.12,6.67,38.75,38.75,0,0,0-8.65,6.89,10.45,10.45,0,0,1-5.46,3.32,22.83,22.83,0,0,0-10.39,6.08,6.49,6.49,0,0,0-2,2.79c3.25-.09,5.84-1.7,8.65-2.58.95-.3,1.95-.93,2.93-.36a4.9,4.9,0,0,0,3.58.36,3.29,3.29,0,0,1,3.45,1.14c1.76,2,4.56,1.32,5.52-1.12.41-1,.51-2.28,2-2.59a4.81,4.81,0,0,0,3.66-3.67c.61-2.31,2.19-2.64,4.07-2.78.72-.06,1.44,0,2.15-.06.89-.06,2-.16,2.33.69s-.81,1.22-1.42,1.62c-3.45,2.27-7.15,4.17-10.21,7-1.54,1.42-3.25,2.75-4,5,1.95.1,3.09-1.17,4.47-1.88,1.83-.94,3.46-2.75,5.83-1.15a1.85,1.85,0,0,0,1.48-.09c4.05-1.84,8.43-2.62,12.62-4,2.2-.72,3.06-1.66,2.52-4.19-.85-4-.63-4-4.76-3.62-.58.06-1.37.59-1.75-.18-.3-.62.17-1.24.58-1.77,4.4-5.61,9.71-10.35,14.66-15.43,1-1.08,2.55-2.21,3.88-.06a.54.54,0,0,0,.51.12c1.26-.78,3-.92,3-3.16a10.51,10.51,0,0,1,4.45-9,83.32,83.32,0,0,0,8.92-8.28c2.23-2.25,4.24-4.71,6.49-7.23,2.08,3.52,2.87,5.42,2.91,6.72.08,2.5,1.19,3.2,3.46,1.91,1.33-.76,1.46-.25,1.72.87a3.74,3.74,0,0,0,2.47,2.79c.78.2,1.32-1.3,1.89-2.1s1.09-1.71,1.59-2.59c2.47-4.27,5.72-8,8.74-12,1.25,1.81,2.3,3.45,2.5,5.43s1,1.77,2.25.75a15.6,15.6,0,0,0,3.68-4c2.74-4.65,7-7.88,10.71-11.62a5.11,5.11,0,0,1,3-1.63,4.52,4.52,0,0,0,3.72-3,16.66,16.66,0,0,1,3.5-4.93,34.1,34.1,0,0,0,7.33-11,17.75,17.75,0,0,1,2.66-4.47,53.53,53.53,0,0,0,5.95-9.83c5.36-10.43,8.39-21.75,12.62-32.61,2.07-5.32,4.52-10.53,5-16.35a8.18,8.18,0,0,1,3.95-6.42c1.12-.75,2.4-1.49,2.68-3a37.59,37.59,0,0,1,2.41-7c2.85-7.2,4-14.89,7-22.11,4.44-10.39,7.08-21.47,8.91-32.65,1.06-6.5.8-13.19,2-19.68A225.11,225.11,0,0,0,956.16,500.17ZM99.1,472.23c-1,.8-2.84-1-4.29-1.73-.73-.35-2-.43-2-1.43,0-1.16,1-1.8,2.06-2.26s1.79-.92,2.68-1.39c2.33-1.23,2.88-.89,2.8,1.74C100.29,469,100.27,471.31,99.1,472.23ZM682,195.53a14.13,14.13,0,0,1-10.61-2,26.61,26.61,0,0,0-6.49-3.31c-5.11-1.74-9.52-4.89-14.22-7.46-2.64-1.44-5.07-3.34-8.4-3-1.23.11-2.47-2.2-2-3.31.26-.68.83-.5,1.29-.46.8.07,1.82-.37,2.27.76.16.4.27.82.4,1.24.64,1.95,2.28,2.34,3.8.82,1.25-1.26,2-1.29,2.41.61a2.28,2.28,0,0,0,1.16,1.77c2.43.91,4.91,1.69,7.37,2.51.19.06.53.06.63-.05,2-2.25,3.64-.11,5.35.45s3.31,1.38,5.41,2.27c-.93-1.47,0-1.89.79-2s.9,1.15.72,1.43c-.79,1.19.2,1.29.83,1.59,1.18.55,2.36,1.1,3.58,1.55,1.43.53,2.52,1.25,2.71,3s1.6,1.61,2.82,1.64c.63,0,1.32-.29,1.52.66S682.61,195.42,682,195.53Zm124.1,95.24c-.27,1.07-.95.36-1.35.23a16.24,16.24,0,0,1-6.93-4.72,33.61,33.61,0,0,0-9.35-7.67c-2.54-1.34-4.34-3.61-6.13-5.79a189.12,189.12,0,0,1-11.09-15.36,7.32,7.32,0,0,1,4.34,2.05A36.52,36.52,0,0,0,784,266c2,1.16,3.43,3.06,4.82,4.92a37.11,37.11,0,0,0,6,6l.07-.79,1.1.93.5.49.41.42.42.43.44.46.3.34,1.86,2.25.31.4c2.94,3.11,6.27,5.9,8.24,9.83C807.13,292.55,807.08,290.45,806.05,290.77Zm6.38-19.21c-10.92-5.86-21.33-12.24-30.27-20.83.91-.4,1.51.34,2.17.7,2.7,1.45,4.84,3.67,7.29,5.48a16,16,0,0,0,6.13,3.19,10.72,10.72,0,0,0-.25-3.75,2.47,2.47,0,0,0-2.07-2.2,7.55,7.55,0,0,1-3.48-1.71c-7.17-6.42-15.7-10.87-23.59-16.24l-.52.35,1.62,3.51c-2,.17-4,.06-5.25-1.35-3.15-3.53-7.28-5.7-11.06-8.34-4.15-2.9-8.14-6.16-12.62-8.41-3.07-1.54-4.45-3.1-3.75-6.41a1.44,1.44,0,0,0-1-1.86c-2.56-1-5.07-2.1-7.6-3.18a2.69,2.69,0,0,0-3.64.9c-.83,1.27-1.71,1-2.76.44q-9.32-4.87-18.66-9.71l-.33.36c-1.41.16-2.64-.64-4-.75-.58,0-.67-.39-.46-.92s.55-.57,1-.25a1.07,1.07,0,0,0,.19.1c.8.36.85.28,2.09,0a4.29,4.29,0,0,1,1.7.25c3,.65,5.89,1.57,9,1.32-.38-1-.38-1-4.49-2.76a8.84,8.84,0,0,1,4.54.54c8.59,2.58,16.4,6.89,24.33,10.94,3.74,1.91,7.43,3.91,11.15,5.88.61.32,1.23.38.61,1.5a2,2,0,0,0,1.31,2.77c1.27.43,1.5-.84,2-1.55.39-.56-.1-1.71,1.25-1.6a2.33,2.33,0,0,1,2.26,1.36,17.67,17.67,0,0,0,1,1.7c-.89.7-2.71.45-2.54,1.92s2,1.82,2.91,1.65c3.5-.65,6.55,1.19,9.89,1.48,3.49.31,6.28,3,8.54,5.84.4.5.63,1.14,1,1.65,1.55,2,2,1.94,3.69,0,.49-.57,1-1.7,2-.61.72.76,2,1.36.27,2.58-1.26.91-1,2,.63,2.42,1.46.42,2.89,1,4.37,1.31a8.88,8.88,0,0,1,6.26,4.91,53.79,53.79,0,0,1,3.39,8c.53,1.55,1.39,2.42,3,1.83a1.5,1.5,0,0,1,1.89.58c3.77,5,7.74,9.77,10.79,15.24A1.65,1.65,0,0,1,812.43,271.57ZM618.54,811.81c-1.45.44-2.85,1-4.29,1.54a3.27,3.27,0,0,0-2.39,2c-.45,1.62-1.5,2-3,2.13a17.87,17.87,0,0,0-8.31,3,9.14,9.14,0,0,0-3.44,3.72c-1.43,2.7-3.49,5-6.79,5.58-.51.09-1.18.45-1.56-.24a1.82,1.82,0,0,1,.15-2,6.29,6.29,0,0,1,2.58-1.92,23.19,23.19,0,0,0,2.29-1.22c1-.67.35-1.63.14-2.37s-.92-.36-1.47-.2a26.05,26.05,0,0,0-5.18,2.22c-2.56,1.39-5.12,2.65-8.13,2.82-1.78.1-3.18,1.8-5.27,1.16-1.59-.49-2-1-1.27-2.56.86-1.75,1.72-3,4-2.4a4.59,4.59,0,0,0,3.53-.85c5-3.31,10.67-4.92,16.36-6.27,6-1.42,11.22-4.7,17.22-5.91,2.62-.52,5.19-1.23,8-1.9A4.2,4.2,0,0,1,618.54,811.81Zm248-445.57c-1.36.53-1.78-.35-2.32-1.24-1.12-1.85-2-3.72-1.05-5.93.35-.85.82-1.32,1.8-1,1.61.5,4,3.61,4.08,5.45C869,365,867.91,365.7,866.54,366.24Zm6,83.78c.79.51,2.71-.6,2.41,1.67-.22,1.66-1.6,3.42-2.66,3.17-1.75-.4-.61-2.65-1-4S871.92,450.14,872.52,450Zm5.35,101.2c-1,4.26-3.17,7.56-7.9,9.12.05-4.85,2.75-8.36,4.53-12.43.9,1,1.13,2.37,2.73,2.06C878.07,549.81,878,550.66,877.88,551.22Z"/><path class="cls-1" d="M254.88,161.86l.11-.28.13.23Z"/><path class="cls-1" d="M782.11,250.69l-.25-.21.28,0Z"/><path class="cls-2" d="M510,67.41a18.51,18.51,0,0,1-10.89,0Z"/><path class="cls-1" d="M750.87,796.79a4.31,4.31,0,0,1-.2.81c-3.35,1.06-4.65,3.19-4.47,6.82.12,2.42-1.74,3.38-5.59,3.89a4.17,4.17,0,0,1,1.48-3.39c.17-.14.33-.29.5-.42,1.06-.84,1.79-2.25,1.28-3.22s-1.92-.09-2.87.24a10.35,10.35,0,0,0-2.52,1.26c-3.68,2.57-7.33,5.19-11,7.81a7.13,7.13,0,0,0-2.48,3.23c-1.44,3.58-6.43,7.52-10.39,8.3,0-3,.53-3.87,3.15-5a4.18,4.18,0,0,0,1.84-1.12c.57-.71,1.08-1.71.68-2.39s-1.46,0-2.13.2c-2.33.86-4.23,2.51-6.38,3.7-1.9,1.06-3.79,2.13-5.74,3.1a3,3,0,0,0-1.88,3.6c.93-.3,1.79-.63,2.67-.84.64-.15,1.49-.21,1.72.49a1.37,1.37,0,0,1-.92,1.55c-4,.59-7,4.32-11.39,3.6-1.31-.21-2.62-.17-3.53,1.39-.64,1.1-2.28.59-3.42,1.06-.95.39-1,.6-.26,1.25,1.61,1.4,1.59,1.42.43,3.72-3.41-3.71-7.5-2.65-11.56-1.66-2.06.5-3.81,1.48-4.61,3.58-.33.88-.75,1.07-1.36.41-1-1.13-2.15-.8-3.35-.36-1.38.5-3.37.93-3.9-.4s1.43-2.12,2.61-2.72a43.15,43.15,0,0,1,11.79-3.68,11.55,11.55,0,0,0,7.65-4.52,5.27,5.27,0,0,1,2.81-2.3c8.87-2.2,16.25-7.46,24.13-11.69C721.35,809,729.07,805,736.77,801,741.12,798.73,746,798.46,750.87,796.79Z"/><path class="cls-1" d="M89.86,400a21.09,21.09,0,0,1-1.93,8.8c-3.76,7.68-4.21,16-5.56,24.23-1.61,9.8-2.31,19.71-3.54,29.55-.59,4.75-1.56,9.42-1.26,14.24a3.64,3.64,0,0,1-.5,2.65c-3-3.87-1.34-8.13-1.74-12.12a29.9,29.9,0,0,0-1.58,9.79,57.07,57.07,0,0,1-1,12.75,12,12,0,0,0,.59,7,5.91,5.91,0,0,1,.36,1.47,1.24,1.24,0,0,1-.46,1.36c-.57.33-1-.14-1.33-.44-1.36-1.15-1.53-2.76-1.47-4.37a357.84,357.84,0,0,1,4.35-45.43c2.31-13.8,4.92-27.53,9.42-40.82.65-1.92,1.43-3.79,2.16-5.69A4.69,4.69,0,0,1,89.86,400Z"/><path class="cls-1" d="M784.44,800.12,776,805.86c-2,1.38-3.7,3-4.29,5.52a4.89,4.89,0,0,1-1.35,2.2c-.34.35-.66,1.53-1.08-.08-.18-.69-3.5.24-4.07,1.38-1.23,2.45-3.29,3.68-5.69,4.73s-4.88,2.3-6.49,4.59c-.4.57-1.07,1.24-.56,1.94s1.37.22,2,.07a8.54,8.54,0,0,0,3.92-2.62,19.12,19.12,0,0,1,7.33-4.92,1.05,1.05,0,0,1,1.05,0c-2.51,5-8.21,6.07-12.29,9.63,1.9.92,3.22.67,4.37-.59a4.9,4.9,0,0,1,3.57-1.75,6,6,0,0,1-7.34,5.28,1.75,1.75,0,0,1-.74-.38c-1.94-1.89-3-2.07-5.36-.78a43.87,43.87,0,0,0-6.06,4.21,4,4,0,0,0-1.72,4.37,2.27,2.27,0,0,1-.53,2.42,25.35,25.35,0,0,1-16.57,6.66c2.82-4,6.1-6.5,10.4-7.61.75-.19,2.06,0,2.13-.63a23.52,23.52,0,0,1,.06-2.82c.16-.71-.69-.47-1.14-.35a15.18,15.18,0,0,0-3.75,1.68,11.23,11.23,0,0,1-6.57,1.68,6.75,6.75,0,0,1,4.5-4.9c5.29-2.17,10-5.62,15.43-7.43a2.35,2.35,0,0,0,1.33-1.06A22.82,22.82,0,0,1,758.64,816c5.81-2.2,10.38-6.28,15.37-9.73C777.33,803.94,780.48,801.39,784.44,800.12Z"/><path class="cls-1" d="M153.18,740.7a6.05,6.05,0,0,1-3.24-2.72,7.76,7.76,0,0,0-1.82-2.13c-1.37-1-2.61-1.55-3.59.54a10.46,10.46,0,0,1-1.79,2.44c-.64.71-1.57,1.4-2.46.78s-.57-1.69-.25-2.6a.42.42,0,0,1,.11-.19c2.89-2.33,1-4.4-.36-6.51-2-3.23-4.24-6.37-5.14-10.28,1.48-.3,2.36.83,3.64,1.4,0-1.85-1.25-3.22-1.18-5.08l4.84,1.42a1.51,1.51,0,0,1,1.17,1.8,7.91,7.91,0,0,0,1.63,5.28c1.72,2.59,3.25,5.29,5.22,7.73C151.77,734.81,152.25,737.64,153.18,740.7Zm-8.81-11c-.78-1-1.14-1.9-2.22-2.55C142.38,728.43,142.65,729.4,144.37,729.65Z"/><path class="cls-1" d="M131,306.52a11.78,11.78,0,0,1,1.71-5.22c1.7-2.77,3.45-5.52,5.15-8.29a2.33,2.33,0,0,1,2.12-1.25c1.12,0,1.45.84,1.79,1.62,1.21,2.78-2,7.56-5,7.33a1.9,1.9,0,0,0-2,1C133.55,303.24,132.81,305.09,131,306.52Z"/><path class="cls-1" d="M160.11,754.72c-.13-.2-.39-.41,0-.61.06,0,.27.19.4.29Z"/><path class="cls-2" d="M782.09,250.76c.95-.46,1.56.31,2.24.68,2.7,1.45,4.84,3.67,7.29,5.48a16,16,0,0,0,6.13,3.19,10.72,10.72,0,0,0-.25-3.75,2.47,2.47,0,0,0-2.07-2.2,7.55,7.55,0,0,1-3.48-1.71c-7.17-6.42-15.7-10.87-23.59-16.24-.17-.21-.36-.43-.61-.17-.07.08.06.34.09.52l1.62,3.51c-2,.17-4,.06-5.25-1.35-3.15-3.53-7.28-5.7-11.06-8.34-4.15-2.9-8.14-6.16-12.62-8.41-3.07-1.54-4.45-3.1-3.75-6.41a1.44,1.44,0,0,0-1-1.86c-2.56-1-5.07-2.1-7.6-3.18a2.69,2.69,0,0,0-3.64.9c-.83,1.27-1.71,1-2.76.44q-9.32-4.87-18.66-9.71c-.24-.13-.5-.34-.72,0,0,0,.25.23.39.35-1.41.16-2.64-.64-4-.75-.58,0-.67-.39-.46-.92s.55-.57,1-.25a1.07,1.07,0,0,0,.19.1c.8.36.85.28,2.09,0a4.29,4.29,0,0,1,1.7.25c3,.65,5.89,1.57,9,1.32-.38-1-.38-1-4.49-2.76a8.84,8.84,0,0,1,4.54.54c8.59,2.58,16.4,6.89,24.33,10.94,3.74,1.91,7.43,3.91,11.15,5.88.61.32,1.23.38.61,1.5a2,2,0,0,0,1.31,2.77c1.27.43,1.5-.84,2-1.55.39-.56-.1-1.71,1.25-1.6a2.33,2.33,0,0,1,2.26,1.36,17.67,17.67,0,0,0,1,1.7c-.89.7-2.71.45-2.54,1.92s2,1.82,2.91,1.65c3.5-.65,6.55,1.19,9.89,1.48,3.49.31,6.28,3,8.54,5.84.4.5.63,1.14,1,1.65,1.55,2,2,1.94,3.69,0,.49-.57,1-1.7,2-.61.72.76,2,1.36.27,2.58-1.26.91-1,2,.63,2.42,1.46.42,2.89,1,4.37,1.31a8.88,8.88,0,0,1,6.26,4.91,53.79,53.79,0,0,1,3.39,8c.53,1.55,1.39,2.42,3,1.83a1.5,1.5,0,0,1,1.89.58c3.77,5,7.74,9.77,10.79,15.24a1.65,1.65,0,0,1,0,1.73c-10.92-5.87-21.34-12.25-30.28-20.84Z"/><path class="cls-2" d="M621.73,808.13a4.2,4.2,0,0,1-3.19,3.68c-1.45.44-2.85,1-4.29,1.54a3.27,3.27,0,0,0-2.39,2c-.45,1.62-1.5,2-3,2.13a17.87,17.87,0,0,0-8.31,3,9.14,9.14,0,0,0-3.44,3.72c-1.43,2.7-3.49,5-6.79,5.58-.51.09-1.18.45-1.56-.24a1.82,1.82,0,0,1,.15-2,6.29,6.29,0,0,1,2.58-1.92,23.2,23.2,0,0,0,2.29-1.22c1-.67.35-1.63.14-2.37s-.92-.36-1.47-.2a26.05,26.05,0,0,0-5.18,2.22c-2.56,1.39-5.12,2.65-8.13,2.82-1.78.1-3.18,1.8-5.27,1.16-1.59-.49-2-1-1.27-2.56.86-1.75,1.72-3,4-2.4a4.59,4.59,0,0,0,3.53-.85c5-3.31,10.67-4.92,16.36-6.27,6-1.42,11.22-4.7,17.22-5.91C616.34,809.5,618.92,808.8,621.73,808.13Z"/><path class="cls-2" d="M806.05,290.78c-.27,1.07-.95.36-1.35.22a16.24,16.24,0,0,1-6.93-4.72,33.61,33.61,0,0,0-9.35-7.67c-2.54-1.34-4.34-3.61-6.13-5.79a189.14,189.14,0,0,1-11.09-15.36,7.32,7.32,0,0,1,4.34,2.05A36.52,36.52,0,0,0,784,266c2,1.16,3.43,3.06,4.82,4.92a37.12,37.12,0,0,0,6,6l0-.06c-.07.4,0,.68.49.48l0,0a4.8,4.8,0,0,0,2.65,3.09l0,0c-.12.44-.14.79.49.48l0,0c-.41.58,0,.76.45.94l0,0c.25.65.42,1.39,1.36,1.33l0,0c-.14.46-.13.78.48.48l0,0c-.44.59,0,.76.45.93l0,0c.14.47.2,1,.93.91l0-.05c-.21.49.09.73.46.93l0,0,.49.48,0,0c.13.48.24,1,.92.91l0,0c0,.35-.11.76.48.48l0,0c-.17.49-.14.79.48.48l0,0c-.27.83.14,1.21.9,1.36l0,0c-.06.39-.1.76.49.48l0,0c-.43.59.05.74.45.94Z"/><path class="cls-2" d="M670.28,186.34c-.93-1.47,0-1.89.79-2s.9,1.15.72,1.43c-.79,1.19.2,1.29.83,1.59,1.18.55,2.36,1.1,3.58,1.55,1.43.53,2.52,1.25,2.71,3s1.6,1.61,2.82,1.64c.63,0,1.32-.29,1.52.66s-.64,1.22-1.3,1.33a14.13,14.13,0,0,1-10.61-2,26.6,26.6,0,0,0-6.49-3.31c-5.11-1.74-9.52-4.89-14.22-7.46-2.64-1.44-5.07-3.34-8.4-3-1.23.11-2.47-2.2-2-3.31.26-.68.83-.5,1.29-.46.8.07,1.82-.37,2.27.76.16.4.27.82.4,1.24.64,1.95,2.28,2.34,3.8.82,1.25-1.26,2-1.29,2.41.61a2.28,2.28,0,0,0,1.16,1.77c2.43.91,4.91,1.69,7.37,2.51.19.06.53.06.63-.05,2-2.25,3.64-.11,5.35.45S668.18,185.44,670.28,186.34Zm.34-.34-.15-.16a1.35,1.35,0,0,0-.14.29s.09.09.14.14Z"/><path class="cls-2" d="M870,560.34c.05-4.85,2.75-8.36,4.53-12.43.9,1,1.13,2.37,2.73,2.06.84-.16.77.69.64,1.25C876.87,555.49,874.7,558.79,870,560.34Z"/><path class="cls-2" d="M869.06,363.51c0,1.53-1.14,2.19-2.52,2.73s-1.78-.35-2.32-1.24c-1.12-1.85-2-3.72-1.05-5.93.35-.85.82-1.32,1.8-1C866.58,358.57,869,361.67,869.06,363.51Z"/><path class="cls-2" d="M100.39,467.17c-.11,1.81-.12,4.14-1.29,5.07-1,.8-2.84-1-4.29-1.73-.73-.35-2-.43-2-1.43,0-1.16,1-1.8,2.06-2.26s1.79-.92,2.68-1.39C99.92,464.19,100.47,464.54,100.39,467.17Z"/><path class="cls-2" d="M800.23,281.82c2.94,3.11,6.27,5.9,8.24,9.83-1.33.9-1.39-1.21-2.41-.88l.05,0c.43-.59-.15-.7-.45-.94l0,0c0-.29-.11-.53-.49-.48l0,0c0-.68-.46-1-.9-1.36l0,0c0-.27-.15-.5-.48-.48l0,0c0-.34-.12-.53-.48-.48l0,0c-.07-.54-.16-1.07-.92-.91l0,0c.12-.44.15-.8-.49-.48l0,0c.43-.59,0-.79-.46-.93l0,.05c-.08-.54-.17-1.06-.93-.91l0,0c.4-.58-.1-.72-.45-.93l0,0a.44.44,0,0,0-.48-.48l0,0-.15-.77Z"/><path class="cls-2" d="M872.52,450c.79.51,2.71-.6,2.41,1.67-.22,1.66-1.6,3.42-2.66,3.17-1.75-.4-.61-2.65-1-4S871.92,450.14,872.52,450Z"/><path class="cls-2" d="M126.58,684.69c1.57,3.48,3.77,6.73,3.9,10.74-2.45-3-3-6.86-4.37-10.37Z"/><path class="cls-2" d="M798.05,279.17l1.86,2.25-.46.34c-.26,0-.45-.53-.79-.13l0,0c.39-.57-.13-.71-.45-.94l0,0c0-.27-.14-.51-.49-.48l0,0-.19-.74Z"/><path class="cls-2" d="M794.8,276.88l.07-.79,1.1.93-.34.27-.44,0,0,0c0-.3-.16-.49-.49-.48Z"/><path class="cls-2" d="M126.11,685.05l-.32-.92.41-.36.38.92Z"/><path class="cls-2" d="M125.37,682l.43.87-.46.37-.48-.82Z"/><path class="cls-2" d="M125.79,684.13l-.45-.88.46-.37.4.89Z"/><path class="cls-2" d="M131.38,697.26l-.1-.49.37.24A2,2,0,0,1,131.38,697.26Z"/><path class="cls-2" d="M254.86,161.91l.12-.32.13.23-.29.06Z"/><path class="cls-2" d="M782.15,250.72l-.29-.24.28,0,0,.32Z"/><path class="cls-2" d="M796,277l.5.49-.44.26-.4-.47Z"/><path class="cls-2" d="M796.47,277.51l.41.42-.42.28-.43-.45Z"/><path class="cls-2" d="M796.88,277.93l.42.43-.43.3-.42-.46Z"/><path class="cls-2" d="M797.3,278.36l.44.46-.52.36-.36-.51Z"/><path class="cls-2" d="M797.75,278.82l.3.34-.39.44-.43-.43Z"/><path class="cls-2" d="M799.91,281.42l.31.4-.36.36-.42-.43Z"/><path class="cls-2" d="M144.37,729.65c-1.72-.25-2-1.22-2.22-2.55C143.23,727.75,143.59,728.69,144.37,729.65Z"/><path class="cls-1" d="M767.85,236.55c0-.18-.16-.44-.09-.52.25-.27.44,0,.61.17Z"/><path class="cls-1" d="M702.78,202.51c-.14-.12-.4-.33-.39-.35.22-.34.47-.14.72,0Z"/><path class="cls-1" d="M797.23,279.18l.43.43.19.74a4.8,4.8,0,0,1-2.65-3.09l.44,0,.4.47.43.45.42.46Z"/><path class="cls-1" d="M799.45,281.76l.42.43.15.77c-.94.06-1.11-.68-1.36-1.33C799,281.23,799.19,281.72,799.45,281.76Z"/><path class="cls-1" d="M804.35,288.13c.43.37.95.68.9,1.36C804.48,289.35,804.08,289,804.35,288.13Z"/><path class="cls-1" d="M800.84,284.24c.75-.15.85.37.93.91C801,285.27,801,284.71,800.84,284.24Z"/><path class="cls-1" d="M802.58,286.41c.76-.16.85.36.92.91C802.82,287.4,802.71,286.9,802.58,286.41Z"/><path class="cls-1" d="M805.65,289.88c.3.24.88.34.45.94C805.71,290.62,805.22,290.47,805.65,289.88Z"/><path class="cls-1" d="M800.43,283.35c.35.21.85.36.45.93C800.44,284.11,800,283.94,800.43,283.35Z"/><path class="cls-1" d="M801.72,285.09c.5.14.88.34.46.93C801.82,285.82,801.51,285.58,801.72,285.09Z"/><path class="cls-1" d="M798.25,280.73c.32.23.84.36.45.94C798.27,281.49,797.84,281.31,798.25,280.73Z"/><path class="cls-1" d="M794.75,276.82c.33,0,.46.18.49.48C794.73,277.49,794.68,277.21,794.75,276.82Z"/><path class="cls-1" d="M797.8,280.3c.35,0,.44.2.49.48C797.66,281.09,797.68,280.74,797.8,280.3Z"/><path class="cls-1" d="M800,282.91a.44.44,0,0,1,.48.48C799.85,283.69,799.84,283.38,800,282.91Z"/><path class="cls-1" d="M805.2,289.45c.37-.06.45.19.49.48C805.1,290.21,805.14,289.84,805.2,289.45Z"/><path class="cls-1" d="M803.9,287.71c.34,0,.44.21.48.48C803.76,288.49,803.73,288.2,803.9,287.71Z"/><path class="cls-1" d="M803.46,287.27c.37,0,.5.14.48.48C803.35,288,803.44,287.62,803.46,287.27Z"/><path class="cls-1" d="M802.14,286c.64-.32.6,0,.49.48Z"/><path class="cls-1" d="M670.61,186l-.15.27s-.14-.11-.14-.14a1.35,1.35,0,0,1,.14-.29Z"/><path class="cls-3" d="M463.88,560c3.34-2.13,6.42-4.94,10.05-6.27,23.2-8.46,47.59-10.63,71.81-9.41A197.94,197.94,0,0,1,612,558.87c30.6,12.65,52.59,32.92,64.75,63.58,5,12.56,8,26.5.4,38.28-9.91,15.46-22,29.6-34,43.56-4.62,5.37-11.93,7.6-21.34,6.22l8.74-4.93-1-2.31c-6.58,2.74-13.12,5.6-19.77,8.16-3.5,1.34-7.21,3-10.81,3-10.75,0-21.87-2.88-32.16-1-25.48,4.77-50.54,6-76.32,2.07-18.17-2.8-36.83-2.56-55.29-3.26-7.06-.27-14.17,1-21.25.91-9.35-.08-18.69-.93-28-1.12-7.6-.15-15.24.66-22.81.22-12.52-.72-16.31-4.87-17-17.42a29.47,29.47,0,0,1,.38-7.58c1.1-5.21,4.47-10.42-1.2-15.2-.59-.5-.19-3,.48-4.05,3.7-6,6.87-12.69,11.74-17.65a30.94,30.94,0,0,1,14.9-8c6.31-1.36,11.48-2.16,9.77-13.75,7.58,10.86,13.82,5.82,20.48,3.49,8-2.81,16.42-4.63,24.65-6.88l.82,2.41-15.68,7.42.85,2.68,22.5-2-8.21,10.36,11.39.77c-7,12.24-20.37,12.41-29.28,18.66l2.49,17.7c34.79.48,69.81,2,104.78,1.14,27.88-.65,55.65-4.15,81.21-17.17,3.74-1.91,8.29-3.72,12.28-3.37,9.45.82,16.67-3.17,23.77-8.33,3.68-2.67,7.76-4.82,11.35-7.6,15.11-11.67,23.69-19.32,11.8-39.54a92.83,92.83,0,0,0-41-37.67C573.64,551,529.22,547.54,483.7,560.4c-5.93,1.68-12.19,2.22-18.29,3.29ZM388.21,690.5c24.47,3.16,48,8.41,72.81,3.58C449.8,685.11,397.36,682.34,388.21,690.5Z"/><path class="cls-3" d="M617.76,514.19c-2.5-15.45-11-26.53-24.61-32-14-5.59-28.86-9.07-43.55-12.6-17.37-4.17-35-7.41-51.59-10.87,1.31,7.76,2.46,16.3,4.35,24.67.47,2.07,3.28,3.66,5.14,5.34,2.55,2.32,5.2,4.52,7.81,6.77l-.29,3c-4.56.57-9.28,2.19-13.63,1.48-7.51-1.22-14.35-3.23-21.77,1.58-2.85,1.84-8.28,0-12.48-.63A99.93,99.93,0,0,1,457,498.45l-.69,1.92c3.71,1.39,7.55,2.5,11.08,4.24,4.22,2.08,9.53,3.75,12,7.26,9.25,13.1,22.6,15.52,36.87,15.55,17.48,0,35-1.62,52.43-.61,10.5.61,20.13-.4,29.65-4.22C604.67,520.06,610.85,517.2,617.76,514.19Z"/><path class="cls-3" d="M431,346.55c-10.63,2.1-14.23,9.75-19.7,17.69-6-5-12.05-9.38-17.41-14.51-16.45-15.75-32.64-31.79-49-47.68-.66-.64-1.67-.91-3.32-.78,3.94,13.75,9.11,26.6,20.82,36,4.4,3.55,8.15,8,11.83,12.35,8,9.48,15.7,19.26,23.78,28.7,3,3.48,3.24,5.94.26,9.78-7.81,10.07-7.33,15.26,1.13,24.74,3.6,4,6.41,8.95,13.11,8.92,1.17,0,3.19,4,3.37,6.27.48,6,.16,12,.16,19.28,8-.66,14.27-.77,20.42-1.78,9.43-1.55,15.32-6.27,18.16-16.52,5.35-19.26,11.92-38.28,24.1-55.32-2.33,1.73-4.43,4.07-7,5-2.85,1-6.69,2-9.17.86-7.37-3.3-14.31-6.3-22.47-2.31-1.27.62-5.21-1.07-5.63-2.41a94.75,94.75,0,0,1-3.33-16.15C430.61,355,431,351.24,431,346.55Z"/><path class="cls-3" d="M485.88,441.14c22,4.45,41.69,9.32,61.66,12.08,9.91,1.37,21,.81,30.42-2.31,14.89-4.94,16.39-17.29,3.83-27-6.42-5-14.41-8.55-22.25-11-17.16-5.27-34.59-9.77-52.09-13.76-5.92-1.35-12.41-.21-18.64-.21l-.49,3.43c8.4,3.05,16.89,5.87,25.14,9.29,2.63,1.09,4.48,4,6.93,5.66,4.78,3.34,9.42,7.15,14.69,9.44,6.06,2.63,12.74,3.82,19,6.75C531.52,435.22,508.67,432.51,485.88,441.14Z"/><path class="cls-3" d="M618.13,366.18c6.61,5.71,13.38,11.25,19.79,17.17,6.25,5.78,12.13,12,18.63,18.42.92-2.18,1.37-2.9,1.25-3-15-14.36-29.83-28.83-45.09-42.86-2.61-2.4-6.83-3.29-10.47-4.28-7.65-2.08-15.14.78-17.87,6.41-2.21,4.54.52,14.92,4.92,18.86a7.28,7.28,0,0,1,2,2.23c6.42,15.31,20.59,22.52,32.8,31.89a120.41,120.41,0,0,1,18.19,17.12c4,4.67,7.59,3,11.43,1.3,4.15-1.89,7.75-4.77,4.63-10-5.14-8.63-9.93-17.6-16.13-25.43-5.78-7.31-13.25-13.29-19.87-20-2-2-3.72-4.41-5.56-6.63Z"/><path class="cls-3" d="M628.3,323.43c4.58,12.08,5.83,25.65,19.81,32.28,5.29,2.51,9.16,8.53,13,13.48,7.29,9.38,13.2,10.21,22.39,1.94C671.14,348.41,651.81,333.65,628.3,323.43Z"/><path class="cls-3" d="M670.26,313.94l-6,9.43.66,2.08c2.41-.34,5.29,0,7.1-1.22a14.75,14.75,0,0,0,4.84-6.54c5.33-13.3-6.32-33.64-21-34.85,2.53,5.7,4.75,10.9,7.13,16S668,309.33,670.26,313.94Z"/><path class="cls-3" d="M502.46,300.74c7.9.72,14.13,1.55,20.38,1.72,2.33.07,4.7-1.39,7-2.16-1.09-2.27-1.58-5.7-3.36-6.61-8.75-4.46-17.84-8.26-27.75-12.7Z"/><path class="cls-3" d="M461,694.08c-11.21-9-63.65-11.74-72.81-3.58C412.68,693.65,436.17,698.9,461,694.08Z"/></svg>