<svg id="Layer_1" data-name="Layer 1" xmlns="http://www.w3.org/2000/svg" viewBox="0 0 551 782"><defs><style>.cls-1{fill:#fff;}</style></defs><title>dojo-do-circulo</title><path class="cls-1" d="M328.7,348.69c-6.11-1.07-12.36-1.62-18.29-3.29-45.53-12.86-89.95-9.41-132.65,10.37a92.83,92.83,0,0,0-41,37.67c-11.89,20.22-3.31,27.88,11.8,39.54,3.6,2.78,7.67,4.93,11.35,7.6,7.11,5.16,14.32,9.16,23.77,8.33,4-.35,8.53,1.46,12.28,3.37,25.56,13,53.33,16.52,81.21,17.17,35,.81,70-.66,104.78-1.14l2.49-17.7c-8.91-6.25-22.26-6.42-29.28-18.66l11.39-.77-8.21-10.36,22.5,2,.85-2.68-15.68-7.42.82-2.41c8.23,2.25,16.61,4.07,24.65,6.88,6.66,2.33,12.91,7.36,20.48-3.49-1.71,11.59,3.46,12.39,9.77,13.75a30.94,30.94,0,0,1,14.9,8c4.86,5,8,11.61,11.74,17.65.67,1.1,1.07,3.55.48,4.05-5.67,4.78-2.3,10-1.2,15.2a29.47,29.47,0,0,1,.38,7.58c-.67,12.55-4.46,16.7-17,17.42-7.57.43-15.21-.37-22.81-.22-9.35.18-18.7,1-28,1.12-7.08.06-14.19-1.17-21.25-.91-18.46.7-37.12.46-55.29,3.26-25.78,4-50.84,2.7-76.32-2.07-10.29-1.93-21.41.91-32.16,1-3.61,0-7.32-1.69-10.81-3-6.65-2.56-13.19-5.42-19.77-8.16l-1,2.31,8.74,4.93c-9.41,1.38-16.72-.85-21.34-6.22-12-14-24.13-28.1-34-43.56-7.55-11.77-4.57-25.72.4-38.28,12.15-30.66,34.14-50.93,64.75-63.58a197.94,197.94,0,0,1,66.23-14.58c24.22-1.21,48.61,1,71.81,9.41,3.63,1.32,6.71,4.14,10.05,6.27Zm4.39,130.39c24.84,4.82,48.34-.43,72.81-3.58C396.74,467.34,344.3,470.11,333.08,479.08Z"/><path class="cls-1" d="M176.33,299.19c2.5-15.45,11-26.53,24.61-32,14-5.59,28.86-9.07,43.55-12.6,17.37-4.17,35-7.41,51.59-10.87-1.31,7.76-2.46,16.3-4.35,24.67-.47,2.07-3.28,3.66-5.14,5.34-2.55,2.32-5.2,4.52-7.81,6.77l.29,3c4.56.57,9.28,2.19,13.63,1.48,7.51-1.22,14.35-3.23,21.77,1.58,2.85,1.84,8.28,0,12.48-.63a99.93,99.93,0,0,0,10.13-2.51l.69,1.92c-3.71,1.39-7.55,2.5-11.08,4.24-4.22,2.08-9.53,3.75-12,7.26-9.25,13.1-22.6,15.52-36.87,15.55-17.48,0-35-1.62-52.43-.61-10.5.61-20.13-.4-29.65-4.22C189.42,305.06,183.25,302.2,176.33,299.19Z"/><path class="cls-1" d="M363.1,131.55c10.63,2.1,14.23,9.75,19.7,17.69,6-5,12.05-9.38,17.41-14.51,16.45-15.75,32.64-31.79,49-47.68.66-.64,1.67-.91,3.32-.78-3.94,13.75-9.11,26.6-20.82,36-4.4,3.55-8.15,8-11.83,12.35-8,9.48-15.7,19.26-23.78,28.7-3,3.48-3.24,5.94-.26,9.78,7.81,10.07,7.33,15.26-1.13,24.74-3.6,4-6.41,8.95-13.11,8.92-1.17,0-3.19,4-3.37,6.27-.48,6-.16,12-.16,19.28-8-.66-14.27-.77-20.42-1.78-9.43-1.55-15.32-6.27-18.16-16.52-5.35-19.26-11.92-38.28-24.1-55.32,2.33,1.73,4.43,4.07,7,5,2.85,1,6.69,2,9.17.86,7.37-3.3,14.31-6.3,22.47-2.31,1.27.62,5.21-1.07,5.63-2.41A94.75,94.75,0,0,0,363,143.73C363.49,140,363.1,136.24,363.1,131.55Z"/><path class="cls-1" d="M308.22,226.14c-22,4.45-41.69,9.32-61.66,12.08-9.91,1.37-21,.81-30.42-2.31-14.89-4.94-16.39-17.29-3.83-27,6.42-5,14.41-8.55,22.25-11,17.16-5.27,34.59-9.77,52.09-13.76,5.92-1.35,12.41-.21,18.64-.21l.49,3.43c-8.4,3.05-16.89,5.87-25.14,9.29-2.63,1.09-4.48,4-6.93,5.66-4.78,3.34-9.42,7.15-14.69,9.44-6.06,2.63-12.74,3.82-19,6.75C262.58,220.22,285.43,217.51,308.22,226.14Z"/><path class="cls-1" d="M176,151.18c-6.61,5.71-13.38,11.25-19.79,17.17-6.25,5.78-12.13,12-18.63,18.42-.92-2.18-1.37-2.9-1.25-3,15-14.36,29.83-28.83,45.09-42.86,2.61-2.4,6.83-3.29,10.47-4.28,7.65-2.08,15.14.78,17.87,6.41,2.21,4.54-.52,14.92-4.92,18.86a7.28,7.28,0,0,0-2,2.23C196.37,179.43,182.2,186.63,170,196a120.41,120.41,0,0,0-18.19,17.12c-4,4.67-7.59,3-11.43,1.3-4.15-1.89-7.75-4.77-4.63-10,5.14-8.63,9.93-17.6,16.13-25.43,5.78-7.31,13.25-13.29,19.87-20,2-2,3.72-4.41,5.56-6.63Z"/><path class="cls-1" d="M165.8,108.43c-4.58,12.08-5.83,25.65-19.81,32.28-5.29,2.51-9.16,8.53-13,13.48-7.29,9.38-13.2,10.21-22.39,1.94C123,133.41,142.29,118.65,165.8,108.43Z"/><path class="cls-1" d="M123.84,98.94l6,9.43-.66,2.08c-2.41-.34-5.29,0-7.1-1.22a14.75,14.75,0,0,1-4.84-6.54c-5.33-13.3,6.32-33.64,21-34.85-2.53,5.7-4.75,10.9-7.13,16S126.07,94.33,123.84,98.94Z"/><path class="cls-1" d="M291.63,85.74c-7.9.72-14.13,1.55-20.38,1.72-2.33.07-4.7-1.39-7-2.16,1.09-2.27,1.58-5.7,3.36-6.61,8.75-4.46,17.84-8.26,27.75-12.7Z"/><path class="cls-1" d="M333.08,479.08c11.21-9,63.65-11.74,72.81-3.58C381.42,478.65,357.93,483.9,333.08,479.08Z"/><path class="cls-1" d="M79.58,572.57H54.41v-17.4h70.64v17.4H99.88v65.54H79.58Z"/><path class="cls-1" d="M135.26,555.17h52v17.4H155.56v15.08h25.29V605H155.56v15.66h33.29v17.4H135.26Z"/><path class="cls-1" d="M203.47,555.17H224l23,38.74a148.53,148.53,0,0,1,7,14.15h.23s-.93-8.93-.93-14.15V555.17h20.3v82.94H253.12L230,599.48a148.42,148.42,0,0,1-7-14.15h-.23s.93,8.93.93,14.15v38.63h-20.3Z"/><path class="cls-1" d="M330.83,553.78c20.53,0,31.09,11.72,31.09,11.72l-9.4,15.31s-9.28-8.47-20.76-8.47c-15.89,0-23.43,11.72-23.43,23.66,0,12.3,8.12,24.94,23.43,24.94,12.53,0,22-10.21,22-10.21l10.44,14.85s-11.72,13.92-33.41,13.92c-26,0-43.5-18.44-43.5-43C287.34,572.34,305.9,553.78,330.83,553.78Z"/><path class="cls-1" d="M376.54,555.17h20.3v33.18H427V555.17h20.3v82.94H427V605.63H396.84v32.48h-20.3Z"/><path class="cls-1" d="M466.79,555.17h20.3v82.94h-20.3Z"/><path class="cls-1" d="M65.7,674.17h7.15v7.23H65.7Zm.07,14.6h7.08v36.94H65.77Z"/><path class="cls-1" d="M83.95,688.77h6.86v4.89a26,26,0,0,1-.15,2.7h.15a15,15,0,0,1,13.87-8.47c8.69,0,12.7,4.75,12.7,14.16v23.65H110.3v-22c0-5.18-1.09-9.27-7-9.27a12.1,12.1,0,0,0-11.68,9.05,17.47,17.47,0,0,0-.58,5v17.3H83.95Z"/><path class="cls-1" d="M129.5,695h-4.82v-5.69h5V678.63h6.86v10.66h8.91V695h-8.91V711.4c0,7.37,5.18,8.32,7.88,8.32a8.5,8.5,0,0,0,1.68-.15v6.28a19.36,19.36,0,0,1-2.48.15c-4.74,0-14.16-1.46-14.16-13.8Z"/><path class="cls-1" d="M170,687.9c10.44,0,16,7.74,16,17.3,0,.95-.22,3.07-.22,3.07H158.84c.37,8.1,6.13,12.19,12.7,12.19a17.61,17.61,0,0,0,11-4.31l2.92,5.18a22,22,0,0,1-14.31,5.26c-11.61,0-19.56-8.39-19.56-19.34C151.54,695.49,159.5,687.9,170,687.9Zm8.76,15c-.22-6.35-4.16-9.42-8.91-9.42-5.4,0-9.78,3.36-10.8,9.42Z"/><path class="cls-1" d="M194.61,688.77h6.86v6.42a26.58,26.58,0,0,1-.15,2.77h.15c1.68-5.4,6-9.64,11.68-9.64a12.61,12.61,0,0,1,1.83.15v7a10.2,10.2,0,0,0-2-.22c-4.53,0-8.69,3.21-10.37,8.69a22.43,22.43,0,0,0-.88,6.64v15.11h-7.08Z"/><path class="cls-1" d="M222,688.77h6.86v4.89a26,26,0,0,1-.15,2.7h.15a15,15,0,0,1,13.87-8.47c8.69,0,12.7,4.75,12.7,14.16v23.65h-7.08v-22c0-5.18-1.09-9.27-7-9.27a12.1,12.1,0,0,0-11.68,9.05,17.47,17.47,0,0,0-.58,5v17.3H222Z"/><path class="cls-1" d="M285.28,702.64h1.61V702c0-6.06-3.43-8.1-8.1-8.1a18.74,18.74,0,0,0-10.29,3.58l-2.92-5.18a23.17,23.17,0,0,1,13.8-4.38c9.34,0,14.6,5.11,14.6,14.45v23.36H287.4v-3.5a27.81,27.81,0,0,1,.15-2.92h-.15a12.78,12.78,0,0,1-11.83,7.3c-6.35,0-12.56-3.87-12.56-11.24C263,703.15,279.07,702.64,285.28,702.64Zm-8.18,18.25c6,0,9.85-6.28,9.85-11.75V708h-1.82c-5.33,0-15,.36-15,7C270.17,718,272.5,720.89,277.1,720.89Z"/><path class="cls-1" d="M305.87,695H301v-5.69h5V678.63h6.86v10.66h8.91V695h-8.91V711.4c0,7.37,5.18,8.32,7.88,8.32a8.5,8.5,0,0,0,1.68-.15v6.28A19.36,19.36,0,0,1,320,726c-4.75,0-14.16-1.46-14.16-13.8Z"/><path class="cls-1" d="M330.39,674.17h7.15v7.23h-7.15Zm.07,14.6h7.08v36.94h-7.08Z"/><path class="cls-1" d="M365.87,687.9c11,0,19.93,8.1,19.93,19.27s-8.91,19.42-19.93,19.42-19.93-8.18-19.93-19.42S354.85,687.9,365.87,687.9Zm0,32.56c7,0,12.7-5.55,12.7-13.29S372.88,694,365.87,694a12.72,12.72,0,0,0-12.7,13.14C353.17,714.91,358.93,720.45,365.87,720.45Z"/><path class="cls-1" d="M394.19,688.77h6.86v4.89a26,26,0,0,1-.15,2.7h.15a15,15,0,0,1,13.87-8.47c8.69,0,12.7,4.75,12.7,14.16v23.65h-7.08v-22c0-5.18-1.09-9.27-7-9.27a12.1,12.1,0,0,0-11.68,9.05,17.47,17.47,0,0,0-.58,5v17.3h-7.08Z"/><path class="cls-1" d="M457.48,702.64h1.61V702c0-6.06-3.43-8.1-8.1-8.1a18.74,18.74,0,0,0-10.29,3.58l-2.92-5.18a23.17,23.17,0,0,1,13.8-4.38c9.34,0,14.6,5.11,14.6,14.45v23.36H459.6v-3.5a27.81,27.81,0,0,1,.15-2.92h-.15a12.78,12.78,0,0,1-11.83,7.3c-6.35,0-12.56-3.87-12.56-11.24C435.22,703.15,451.28,702.64,457.48,702.64Zm-8.18,18.25c6,0,9.85-6.28,9.85-11.75V708h-1.82c-5.33,0-15,.36-15,7C442.37,718,444.71,720.89,449.31,720.89Z"/><path class="cls-1" d="M476.32,674.17h7.08V714.4c0,4.45,1.75,5.26,3.94,5.26a11.24,11.24,0,0,0,1.24-.07v6.28a19.84,19.84,0,0,1-2.34.15c-4,0-9.93-1.09-9.93-10.37Z"/></svg>